<svg xmlns="http://www.w3.org/2000/svg" fill="none">
    <symbol id="floppy_l" viewBox="0 0 39 39">
        <path fill="currentColor" d="M0 0h3v3H0zM0 3h3v3H0zM0 6h3v3H0zM0 9h3v3H0zM0 12h3v3H0zM0 15h3v3H0zM0 18h3v3H0zM0 21h3v3H0zM0 24h3v3H0zM0 27h3v3H0zM0 30h3v3H0zM0 33h3v3H0zM0 36h3v3H0zM33 0v3h-3V0z"/>
        <path fill="currentColor" d="M30.003 0v3h-3V0zM27 0v3h-3V0zM24 0v3h-3V0zM20.999 0v3h-3V0z"/>
        <path fill="currentColor" d="M18 0v3h-3V0zM14.999 0v3h-3V0z"/>
        <path fill="currentColor" d="M12 0v3H9V0zM8.996 0v3h-3V0z"/>
        <path fill="currentColor" d="M6 0v3H3V0zM36 3v3h-3V3zM8.996 6v3h-3V6zM8.996 3v3h-3V3zM8.996 9v3h-3V9zM30.003 6v3h-3V6zM30.003 3v3h-3V3zM30.003 9v3h-3V9zM24 6v3h-3V6zM24 3v3h-3V3zM24 9v3h-3V9zM30.003 12v3h-3v-3zM27 12v3h-3v-3zM24 12v3h-3v-3zM20.999 12v3h-3v-3z"/>
        <path fill="currentColor" d="M18 12v3h-3v-3zM14.999 12v3h-3v-3z"/>
        <path fill="currentColor" d="M12 12v3H9v-3zM8.996 12v3h-3v-3zM33 21v3h-3v-3z"/>
        <path fill="currentColor" d="M30.003 21v3h-3v-3zM27 21v3h-3v-3zM24 21v3h-3v-3zM20.999 21v3h-3v-3z"/>
        <path fill="currentColor" d="M18 21v3h-3v-3zM14.999 21v3h-3v-3z"/>
        <path fill="currentColor" d="M12 21v3H9v-3zM8.996 21v3h-3v-3zM33 24v3h-3v-3zM8.996 24v3h-3v-3zM33 27v3h-3v-3zM8.996 27v3h-3v-3zM33 30v3h-3v-3zM8.996 30v3h-3v-3zM8.996 33v3h-3v-3zM33 33v3h-3v-3zM36 36v3h-3v-3zM33 36v3h-3v-3z"/>
        <path fill="currentColor" d="M30.003 36v3h-3v-3zM27 36v3h-3v-3zM24 36v3h-3v-3zM20.999 36v3h-3v-3z"/>
        <path fill="currentColor" d="M18 36v3h-3v-3zM14.999 36v3h-3v-3z"/>
        <path fill="currentColor" d="M12 36v3H9v-3zM8.996 36v3h-3v-3z"/>
        <path fill="currentColor" d="M6 36v3H3v-3zM39 39h-3v-3h3zM39 36h-3v-3h3zM39 33h-3v-3h3zM39 30h-3v-3h3zM39 27h-3v-3h3zM39 24h-3v-3h3zM39 21h-3v-3h3zM39 18h-3v-3h3zM39 15h-3v-3h3zM39 12h-3V9h3zM39 9h-3V6h3z"/>
    </symbol>
    <symbol id="floppy_m" viewBox="0 0 29 28">
        <path fill="currentColor" d="M.5 0h2.154v2.154H.5zM.5 2.154h2.154v2.154H.5zM.5 4.308h2.154v2.154H.5z"/>
        <path fill="currentColor" d="M.5 6.461h2.154v2.154H.5zM.5 8.615h2.154v2.154H.5zM.5 10.769h2.154v2.154H.5zM.5 12.923h2.154v2.154H.5zM.5 15.077h2.154v2.154H.5zM.5 17.231h2.154v2.154H.5zM.5 19.385h2.154v2.154H.5zM.5 21.539h2.154v2.154H.5z"/>
        <path fill="currentColor" d="M.5 23.692h2.154v2.154H.5zM.5 25.846h2.154V28H.5zM24.193 0v2.154h-2.154V0z"/>
        <path fill="currentColor" d="M22.04 0v2.154h-2.155V0zM19.884 0v2.154H17.73V0zM17.73 0v2.154h-2.154V0z"/>
        <path fill="currentColor" d="M15.577 0v2.154h-2.154V0zM13.423 0v2.154H11.27V0zM11.27 0v2.154H9.115V0z"/>
        <path fill="currentColor" d="M9.116 0v2.154H6.962V0zM6.96 0v2.154H4.808V0zM4.807 0v2.154H2.653V0zM26.346 2.153v2.154h-2.154V2.153zM6.96 4.308v2.154H4.808V4.308zM6.96 2.154v2.154H4.808V2.154z"/>
        <path fill="currentColor" d="M6.961 6.461v2.154H4.807V6.461zM22.039 4.308v2.154h-2.154V4.308zM22.039 2.154v2.154h-2.154V2.154z"/>
        <path fill="currentColor" d="M22.04 6.461v2.154h-2.154V6.461zM17.73 4.307v2.154h-2.154V4.307zM17.73 2.153v2.154h-2.154V2.153z"/>
        <path fill="currentColor" d="M17.73 6.46v2.155h-2.153V6.46zM22.04 8.615v2.154h-2.155V8.615zM19.884 8.615v2.154H17.73V8.615zM17.73 8.615v2.154h-2.153V8.615zM15.577 8.615v2.154h-2.154V8.615zM13.423 8.615v2.154H11.27V8.615zM11.27 8.616v2.154H9.116V8.616zM9.116 8.615v2.154H6.962V8.615zM6.961 8.615v2.154H4.807V8.615zM24.192 15.077v2.154h-2.154v-2.154z"/>
        <path fill="currentColor" d="M22.039 15.077v2.154h-2.154v-2.154zM19.884 15.077v2.154H17.73v-2.154zM17.73 15.076v2.154h-2.154v-2.154z"/>
        <path fill="currentColor" d="M15.577 15.077v2.154h-2.155v-2.154z"/>
        <path fill="currentColor" d="M13.423 15.077v2.153h-2.154v-2.153z"/>
        <path fill="currentColor" d="M11.27 15.077v2.154H9.114v-2.154z"/>
        <path fill="currentColor" d="M9.116 15.077v2.154H6.962v-2.154zM6.96 15.077v2.154H4.808v-2.154zM24.193 17.231v2.154h-2.154v-2.154zM6.96 17.231v2.154H4.808v-2.154zM24.192 19.385v2.154h-2.154v-2.154zM6.96 19.385v2.154H4.808v-2.154zM24.192 21.539v2.154h-2.154v-2.154zM6.96 21.539v2.154H4.808v-2.154z"/>
        <path fill="currentColor" d="M6.961 23.692v2.154H4.807v-2.154zM24.193 23.693v2.154H22.04v-2.154zM26.347 25.846V28h-2.154v-2.154z"/>
        <path fill="currentColor" d="M24.193 25.846V28h-2.154v-2.154z"/>
        <path fill="currentColor" d="M22.04 25.846V28h-2.155v-2.154zM19.884 25.846V28H17.73v-2.154zM17.73 25.846V28h-2.153v-2.154zM15.577 25.846V28h-2.154v-2.154zM13.423 25.846V28H11.27v-2.154zM11.27 25.847V28H9.116v-2.154zM9.116 25.846V28H6.962v-2.154zM6.961 25.846V28H4.807v-2.154zM4.807 25.846V28H2.653v-2.154zM28.5 28h-2.154v-2.154H28.5zM28.5 25.846h-2.154v-2.154H28.5z"/>
        <path fill="currentColor" d="M28.5 23.693h-2.154v-2.154H28.5zM28.5 21.538h-2.154v-2.154H28.5z"/>
        <path fill="currentColor" d="M28.5 19.385h-2.154V17.23H28.5z"/>
        <path fill="currentColor" d="M28.5 17.231h-2.154v-2.154H28.5zM28.5 15.076h-2.154v-2.154H28.5z"/>
        <path fill="currentColor" d="M28.5 12.924h-2.154V10.77H28.5zM28.5 10.769h-2.154V8.615H28.5zM28.5 8.615h-2.154V6.461H28.5z"/>
        <path fill="currentColor" d="M28.5 6.462h-2.154V4.308H28.5z"/>
    </symbol>
    <symbol id="floppy_s" viewBox="0 0 21 21">
        <path fill="currentColor" d="M0 0h1.615v1.615H0zM0 1.615h1.615V3.23H0zM0 3.231h1.615v1.615H0zM0 4.846h1.615v1.615H0zM0 6.461h1.615v1.615H0zM0 8.077h1.615v1.615H0zM0 9.692h1.615v1.615H0zM0 11.308h1.615v1.615H0zM0 12.923h1.615v1.615H0zM0 14.539h1.615v1.615H0zM0 16.154h1.615v1.615H0zM0 17.769h1.615v1.615H0zM0 19.385h1.615V21H0zM17.77 0v1.615h-1.616V0zM16.154 0v1.615h-1.615V0zM14.539 0v1.615h-1.615V0zM12.923 0v1.615h-1.615V0zM11.308 0v1.615H9.693V0zM9.692 0v1.615H8.077V0zM8.077 0v1.615H6.462V0zM6.462 0v1.615H4.847V0zM4.846 0v1.615H3.231V0zM3.23 0v1.615H1.617V0zM19.385 1.616V3.23H17.77V1.616zM4.846 3.23v1.616H3.231V3.23zM4.846 1.615V3.23H3.231V1.615zM4.846 4.846v1.615H3.231V4.846zM16.154 3.231v1.615h-1.615V3.231zM16.154 1.615V3.23H14.54V1.615zM16.154 4.846v1.615H14.54V4.846zM12.923 3.23v1.616h-1.615V3.23zM12.923 1.615V3.23h-1.615V1.615zM12.923 4.846v1.615h-1.615V4.846zM16.154 6.462v1.615H14.54V6.462zM14.539 6.462v1.615h-1.615V6.462zM12.924 6.461v1.615h-1.615V6.461zM11.308 6.462v1.615H9.693V6.462zM9.693 6.461v1.615H8.078V6.461zM8.077 6.462v1.615H6.462V6.462zM6.462 6.462v1.615H4.847V6.462zM4.847 6.461v1.615H3.232V6.461zM17.769 11.307v1.615h-1.615v-1.615zM16.154 11.308v1.615h-1.616v-1.615zM14.538 11.308v1.615h-1.615v-1.615zM12.923 11.307v1.615h-1.615v-1.615zM11.307 11.308v1.615H9.692v-1.615zM9.692 11.307v1.615H8.077v-1.615zM8.076 11.308v1.615H6.461v-1.615zM6.461 11.308v1.615H4.846v-1.615zM4.846 11.307v1.615H3.23v-1.615zM17.77 12.923v1.615h-1.616v-1.615zM4.846 12.923v1.615H3.231v-1.615z"/>
        <path fill="currentColor" d="M17.769 14.538v1.615h-1.615v-1.615zM4.846 14.538v1.615H3.23v-1.615zM17.769 16.154v1.615h-1.615v-1.615zM4.846 16.154v1.615H3.23v-1.615zM4.846 17.769v1.615H3.231v-1.615zM17.77 17.769v1.615h-1.616v-1.615zM19.384 19.385V21H17.77v-1.615zM17.769 19.385V21h-1.615v-1.615zM16.154 19.385V21h-1.615v-1.615zM14.538 19.385V21h-1.615v-1.615zM12.923 19.385V21h-1.615v-1.615zM11.307 19.385V21H9.692v-1.615zM9.692 19.384V21H8.077v-1.615zM8.077 19.385V21H6.462v-1.615zM6.461 19.385V21H4.846v-1.615zM4.846 19.385V21H3.23v-1.615zM3.23 19.385V21H1.617v-1.615zM21 21h-1.615v-1.615H21zM21 19.385h-1.615V17.77H21zM21 17.769h-1.615v-1.615H21zM21 16.154h-1.615v-1.615H21zM21 14.538h-1.615v-1.615H21zM21 12.923h-1.615v-1.615H21zM21 11.307h-1.615V9.692H21z"/>
        <path fill="currentColor" d="M21 9.693h-1.615V8.078H21zM21 8.077h-1.615V6.462H21zM21 6.462h-1.615V4.847H21zM21 4.846h-1.615V3.231H21z"/>
    </symbol>
</svg>